<svg width="22" height="22" viewBox="0 0 22 22" fill="none" xmlns="http://www.w3.org/2000/svg">
<g clip-path="url(#clip0_1_236)">
<rect width="21.2367" height="21.2367" transform="translate(0 0.457275)"/>
<path d="M3.8777 0.457275C1.72962 0.457275 0 2.1869 0 4.33497V17.8163C0 19.9644 1.72962 21.694 3.8777 21.694H11.1845V13.3918H8.98912V10.4027H11.1845V7.84899C11.1845 5.84265 12.4816 4.00049 15.4696 4.00049C16.6794 4.00049 17.5741 4.11664 17.5741 4.11664L17.5037 6.90795C17.5037 6.90795 16.5913 6.89933 15.5957 6.89933C14.5182 6.89933 14.3454 7.3958 14.3454 8.22V10.4027H17.5893L17.448 13.3918H14.3454V21.694H17.359C19.5071 21.694 21.2367 19.9644 21.2367 17.8163V4.33499C21.2367 2.18692 19.5071 0.457297 17.359 0.457297H3.87768L3.8777 0.457275Z" fill="black"/>
</g>
<defs>
<clipPath id="clip0_1_236">
<rect width="21.2367" height="21.2367" fill="white" transform="translate(0 0.457275)"/>
</clipPath>
</defs>
</svg>
