<svg width="22" height="22" viewBox="0 0 22 22" fill="none" xmlns="http://www.w3.org/2000/svg">
<path d="M3.8777 0.457153C1.72962 0.457153 0 2.18678 0 4.33485V17.8162C0 19.9643 1.72962 21.6939 3.8777 21.6939H11.1845V13.3917H8.98912V10.4026H11.1845V7.84887C11.1845 5.84253 12.4816 4.00037 15.4696 4.00037C16.6794 4.00037 17.5741 4.11652 17.5741 4.11652L17.5037 6.90783C17.5037 6.90783 16.5913 6.89921 15.5957 6.89921C14.5182 6.89921 14.3454 7.39568 14.3454 8.21987V10.4026H17.5893L17.448 13.3917H14.3454V21.6939H17.359C19.5071 21.6939 21.2367 19.9643 21.2367 17.8162V4.33487C21.2367 2.1868 19.5071 0.457175 17.359 0.457175H3.87768L3.8777 0.457153Z" fill="white"/>
</svg>
