<svg width="29" height="29" viewBox="0 0 29 29" fill="none" xmlns="http://www.w3.org/2000/svg">
<path d="M14.3287 10.4109C12.3108 10.4109 10.6641 12.0576 10.6641 14.0755C10.6641 16.0933 12.3108 17.7401 14.3287 17.7401C16.3465 17.7401 17.9932 16.0933 17.9932 14.0755C17.9932 12.0576 16.3465 10.4109 14.3287 10.4109ZM25.3196 14.0755C25.3196 12.558 25.3334 11.0542 25.2482 9.53943C25.1629 7.77999 24.7616 6.21849 23.475 4.9319C22.1856 3.64257 20.6269 3.24394 18.8674 3.15872C17.3499 3.0735 15.8462 3.08724 14.3314 3.08724C12.8139 3.08724 11.3101 3.0735 9.79535 3.15872C8.03591 3.24394 6.47441 3.64531 5.18782 4.9319C3.89849 6.22124 3.49986 7.77999 3.41464 9.53943C3.32942 11.0569 3.34316 12.5607 3.34316 14.0755C3.34316 15.5902 3.32942 17.0968 3.41464 18.6115C3.49986 20.371 3.90124 21.9325 5.18782 23.2191C6.47716 24.5084 8.03591 24.907 9.79535 24.9922C11.3129 25.0775 12.8166 25.0637 14.3314 25.0637C15.8489 25.0637 17.3527 25.0775 18.8674 24.9922C20.6269 24.907 22.1884 24.5056 23.475 23.2191C24.7643 21.9297 25.1629 20.371 25.2482 18.6115C25.3361 17.0968 25.3196 15.593 25.3196 14.0755ZM14.3287 19.7139C11.2084 19.7139 8.6902 17.1957 8.6902 14.0755C8.6902 10.9552 11.2084 8.43703 14.3287 8.43703C17.4489 8.43703 19.9671 10.9552 19.9671 14.0755C19.9671 17.1957 17.4489 19.7139 14.3287 19.7139ZM20.198 9.52294C19.4695 9.52294 18.8812 8.93462 18.8812 8.20611C18.8812 7.47759 19.4695 6.88928 20.198 6.88928C20.9265 6.88928 21.5149 7.47759 21.5149 8.20611C21.5151 8.3791 21.4812 8.55043 21.4151 8.71029C21.349 8.87016 21.252 9.01541 21.1296 9.13773C21.0073 9.26005 20.8621 9.35704 20.7022 9.42314C20.5423 9.48924 20.371 9.52315 20.198 9.52294Z" fill="black"/>
</svg>
