<svg width="23" height="23" viewBox="0 0 23 23" fill="none" xmlns="http://www.w3.org/2000/svg">
<path d="M11.3287 7.4109C9.3108 7.4109 7.66407 9.05763 7.66407 11.0755C7.66407 13.0933 9.3108 14.7401 11.3287 14.7401C13.3465 14.7401 14.9932 13.0933 14.9932 11.0755C14.9932 9.05763 13.3465 7.4109 11.3287 7.4109ZM22.3196 11.0755C22.3196 9.55797 22.3334 8.0542 22.2482 6.53943C22.1629 4.77999 21.7616 3.21849 20.475 1.9319C19.1856 0.642566 17.6269 0.243943 15.8674 0.158721C14.3499 0.0734978 12.8462 0.0872435 11.3314 0.0872435C9.81388 0.0872435 8.31012 0.0734978 6.79535 0.158721C5.03591 0.243943 3.47441 0.645315 2.18782 1.9319C0.898486 3.22124 0.499864 4.77999 0.414641 6.53943C0.329418 8.05695 0.343164 9.56072 0.343164 11.0755C0.343164 12.5902 0.329418 14.0968 0.414641 15.6115C0.499864 17.371 0.901236 18.9325 2.18782 20.2191C3.47716 21.5084 5.03591 21.907 6.79535 21.9922C8.31287 22.0775 9.81663 22.0637 11.3314 22.0637C12.8489 22.0637 14.3527 22.0775 15.8674 21.9922C17.6269 21.907 19.1884 21.5056 20.475 20.2191C21.7643 18.9297 22.1629 17.371 22.2482 15.6115C22.3361 14.0968 22.3196 12.593 22.3196 11.0755ZM11.3287 16.7139C8.2084 16.7139 5.6902 14.1957 5.6902 11.0755C5.6902 7.95523 8.2084 5.43703 11.3287 5.43703C14.4489 5.43703 16.9671 7.95523 16.9671 11.0755C16.9671 14.1957 14.4489 16.7139 11.3287 16.7139ZM17.198 6.52294C16.4695 6.52294 15.8812 5.93462 15.8812 5.20611C15.8812 4.47759 16.4695 3.88928 17.198 3.88928C17.9265 3.88928 18.5149 4.47759 18.5149 5.20611C18.5151 5.3791 18.4812 5.55043 18.4151 5.71029C18.349 5.87016 18.252 6.01541 18.1296 6.13773C18.0073 6.26005 17.8621 6.35704 17.7022 6.42314C17.5423 6.48924 17.371 6.52315 17.198 6.52294Z" fill="white"/>
</svg>
