<svg width="23" height="26" viewBox="0 0 23 26" fill="none" xmlns="http://www.w3.org/2000/svg">
<g clip-path="url(#clip0_1_314)">
<rect width="22.2245" height="24.6939" transform="translate(0.11438 0.481689)" fill="black"/>
<path d="M19.9577 2.02502H2.49557C1.18096 2.02502 0.11438 3.06197 0.11438 4.34007V21.3171C0.11438 22.5952 1.18096 23.6322 2.49557 23.6322H19.9577C21.2723 23.6322 22.3389 22.5952 22.3389 21.3171V4.34007C22.3389 3.06197 21.2723 2.02502 19.9577 2.02502ZM17.5318 9.68398C17.5417 9.81902 17.5417 9.95889 17.5417 10.0939C17.5417 14.2755 14.2676 19.0937 8.28485 19.0937C6.43942 19.0937 4.72794 18.5728 3.2893 17.6757C3.55223 17.7047 3.80523 17.7143 4.07311 17.7143C5.59609 17.7143 6.99504 17.2127 8.11122 16.3639C6.68251 16.3349 5.48199 15.4234 5.07024 14.1694C5.57128 14.2417 6.02272 14.2417 6.53864 14.1115C5.0504 13.8173 3.93421 12.544 3.93421 11.0055V10.9669C4.3658 11.2032 4.87181 11.3479 5.40261 11.3672C4.95635 11.0786 4.59052 10.6871 4.33776 10.2276C4.085 9.76811 3.95318 9.25493 3.95405 8.73385C3.95405 8.14544 4.1128 7.60526 4.39557 7.13743C5.99791 9.05699 8.40391 10.311 11.1026 10.446C10.6412 8.29977 12.2932 6.55866 14.2775 6.55866C15.2151 6.55866 16.0585 6.93968 16.6538 7.55703C17.388 7.42198 18.0924 7.15672 18.7175 6.79499C18.4744 7.52809 17.9634 8.14544 17.2887 8.5361C17.9436 8.46858 18.5786 8.29013 19.1639 8.04415C18.7224 8.67597 18.1668 9.23544 17.5318 9.68398Z" fill="white"/>
</g>
<defs>
<clipPath id="clip0_1_314">
<rect width="22.2245" height="24.6939" fill="white" transform="translate(0.11438 0.481689)"/>
</clipPath>
</defs>
</svg>
