<svg width="23" height="26" viewBox="0 0 23 26" fill="none" xmlns="http://www.w3.org/2000/svg">
<g clip-path="url(#clip0_1_238)">
<rect width="22.2245" height="24.6939" transform="translate(0.11438 0.481689)"/>
<path d="M19.9577 2.02515H2.49557C1.18096 2.02515 0.11438 3.0621 0.11438 4.3402V21.3172C0.11438 22.5953 1.18096 23.6323 2.49557 23.6323H19.9577C21.2723 23.6323 22.3389 22.5953 22.3389 21.3172V4.3402C22.3389 3.0621 21.2723 2.02515 19.9577 2.02515ZM17.5318 9.6841C17.5417 9.81915 17.5417 9.95901 17.5417 10.0941C17.5417 14.2756 14.2676 19.0938 8.28485 19.0938C6.43942 19.0938 4.72794 18.5729 3.2893 17.6758C3.55223 17.7048 3.80523 17.7144 4.07311 17.7144C5.59609 17.7144 6.99504 17.2128 8.11122 16.364C6.68251 16.335 5.48199 15.4235 5.07024 14.1695C5.57128 14.2419 6.02272 14.2419 6.53864 14.1116C5.0504 13.8174 3.93421 12.5442 3.93421 11.0056V10.967C4.3658 11.2034 4.87181 11.348 5.40261 11.3673C4.95635 11.0787 4.59052 10.6872 4.33776 10.2277C4.085 9.76823 3.95318 9.25505 3.95405 8.73397C3.95405 8.14556 4.1128 7.60538 4.39557 7.13755C5.99791 9.05711 8.40391 10.3111 11.1026 10.4461C10.6412 8.2999 12.2932 6.55878 14.2775 6.55878C15.2151 6.55878 16.0585 6.9398 16.6538 7.55715C17.388 7.42211 18.0924 7.15684 18.7175 6.79511C18.4744 7.52821 17.9634 8.14556 17.2887 8.53622C17.9436 8.4687 18.5786 8.29025 19.1639 8.04428C18.7224 8.67609 18.1668 9.23556 17.5318 9.6841Z" fill="black"/>
</g>
<defs>
<clipPath id="clip0_1_238">
<rect width="22.2245" height="24.6939" fill="white" transform="translate(0.11438 0.481689)"/>
</clipPath>
</defs>
</svg>
